<?xml version="1.0" encoding="UTF-8"?>
<svg xmlns="http://www.w3.org/2000/svg" xmlns:xlink="http://www.w3.org/1999/xlink" width="193pt" height="193pt" viewBox="0 0 193 193" version="1.1">
<g id="surface1">
<rect x="0" y="0" width="193" height="193" style="fill:rgb(100%,100%,100%);fill-opacity:1;stroke:none;"/>
<path style=" stroke:none;fill-rule:nonzero;fill:rgb(92.89856%,10.998535%,13.699341%);fill-opacity:1;" d="M 11.714844 158.59375 L 180.832031 158.59375 L 180.832031 34.882813 L 11.714844 34.882813 Z M 11.714844 158.59375 "/>
<path style=" stroke:none;fill-rule:nonzero;fill:rgb(100%,100%,100%);fill-opacity:1;" d="M 55.691406 128.53125 L 59.140625 121.167969 L 62.644531 128.53125 Z M 56.472656 116.523438 L 46.566406 136.398438 L 52.015625 136.398438 L 54.125 131.894531 L 64.300781 131.894531 L 66.515625 136.398438 L 72.105469 136.398438 L 61.925781 116.523438 Z M 83.808594 124.945313 L 80.011719 124.945313 L 80.011719 119.886719 L 84.015625 119.886719 C 86.089844 119.886719 87.34375 119.910156 87.761719 119.957031 C 88.589844 120.0625 89.230469 120.324219 89.691406 120.738281 C 90.148438 121.152344 90.375 121.691406 90.375 122.363281 C 90.375 122.960938 90.203125 123.460938 89.855469 123.859375 C 89.507813 124.257813 89.03125 124.535156 88.417969 124.703125 C 87.804688 124.863281 86.265625 124.945313 83.808594 124.945313 M 91.71875 129.304688 C 90.996094 128.699219 90.082031 128.144531 88.976563 127.640625 C 91.207031 127.386719 92.882813 126.777344 94.003906 125.800781 C 95.125 124.832031 95.683594 123.597656 95.683594 122.105469 C 95.683594 120.925781 95.3125 119.882813 94.570313 118.96875 C 93.832031 118.058594 92.847656 117.417969 91.609375 117.0625 C 90.378906 116.703125 88.40625 116.523438 85.683594 116.523438 L 74.867188 116.523438 L 74.867188 136.398438 L 80.011719 136.398438 L 80.011719 128.117188 L 81.054688 128.117188 C 82.234375 128.117188 83.097656 128.1875 83.644531 128.335938 C 84.1875 128.484375 84.703125 128.761719 85.191406 129.160156 C 85.675781 129.558594 86.582031 130.527344 87.90625 132.0625 L 91.59375 136.398438 L 97.742188 136.398438 L 94.632813 132.527344 C 93.410156 130.984375 92.4375 129.90625 91.71875 129.304688 M 131.390625 127.644531 L 144.144531 127.644531 L 144.144531 124.277344 L 131.390625 124.277344 L 131.390625 119.886719 L 145.089844 119.886719 L 145.089844 116.523438 L 126.246094 116.523438 L 126.246094 136.398438 L 145.589844 136.398438 L 145.589844 133.035156 L 131.390625 133.035156 Z M 148.167969 116.523438 L 148.167969 119.886719 L 155.730469 119.886719 L 155.730469 136.398438 L 160.871094 136.398438 L 160.871094 119.886719 L 168.375 119.886719 L 168.375 116.523438 Z M 37.628906 132.292969 C 36.648438 132.972656 35.476563 133.3125 34.113281 133.3125 C 32.265625 133.3125 30.761719 132.777344 29.609375 131.710938 C 28.453125 130.644531 27.878906 128.855469 27.878906 126.339844 C 27.878906 123.96875 28.464844 122.253906 29.632813 121.195313 C 30.804688 120.140625 32.328125 119.609375 34.207031 119.609375 C 35.5625 119.609375 36.722656 119.90625 37.671875 120.507813 C 38.621094 121.105469 39.25 121.914063 39.546875 122.945313 L 44.636719 122.003906 C 44.058594 120.410156 43.191406 119.191406 42.03125 118.34375 C 40.09375 116.910156 37.566406 116.191406 34.460938 116.191406 C 30.902344 116.191406 28.027344 117.105469 25.84375 118.933594 C 23.65625 120.765625 22.566406 123.332031 22.566406 126.636719 C 22.566406 129.765625 23.65625 132.226563 25.832031 134.027344 C 28.003906 135.828125 30.777344 136.734375 34.152344 136.734375 C 36.886719 136.734375 39.136719 136.199219 40.910156 135.140625 C 42.6875 134.085938 43.957031 132.464844 44.71875 130.285156 L 39.746094 129.089844 C 39.316406 130.542969 38.613281 131.613281 37.628906 132.292969 M 116.011719 129.855469 L 105.539063 116.523438 L 100.558594 116.523438 L 100.558594 136.398438 L 105.3125 136.398438 L 105.3125 123.359375 L 115.628906 136.398438 L 120.765625 136.398438 L 120.765625 116.523438 L 116.011719 116.523438 Z M 95.078125 65.535156 C 120.222656 65.535156 141.058594 75.148438 145.226563 87.773438 C 145.71875 86.269531 146.03125 84.730469 146.03125 83.148438 C 146.03125 68.3125 123.222656 56.285156 95.078125 56.285156 C 66.933594 56.285156 44.121094 68.3125 44.121094 83.148438 C 44.121094 84.730469 44.429688 86.269531 44.925781 87.773438 C 49.09375 75.148438 69.933594 65.535156 95.078125 65.535156 M 95.078125 81.519531 C 120.222656 81.519531 141.058594 91.132813 145.226563 103.761719 C 145.71875 102.261719 146.03125 100.71875 146.03125 99.140625 C 146.03125 84.300781 123.222656 72.273438 95.078125 72.273438 C 66.933594 72.273438 44.121094 84.300781 44.121094 99.140625 C 44.121094 100.71875 44.429688 102.261719 44.925781 103.761719 C 49.09375 91.132813 69.933594 81.519531 95.078125 81.519531 "/>
</g>
</svg>
